<?xml version="1.0" encoding="UTF-8" standalone="no"?>
<!DOCTYPE svg PUBLIC "-//W3C//DTD SVG 1.1//EN"
 "http://www.w3.org/Graphics/SVG/1.1/DTD/svg11.dtd">
<!-- Generated by graphviz version 2.49.3 (20211023.0002)
 -->
<!-- Title: deps Pages: 1 -->
<svg width="1111pt" height="542pt"
 viewBox="0.00 0.00 1111.00 542.00" xmlns="http://www.w3.org/2000/svg" xmlns:xlink="http://www.w3.org/1999/xlink">
<g id="graph0" class="graph" transform="scale(1 1) rotate(0) translate(4 538)">
<title>deps</title>
<polygon fill="white" stroke="transparent" points="-4,4 -4,-538 1107,-538 1107,4 -4,4"/>
<g id="clust1" class="cluster">
<title>cluster_1</title>
<polygon fill="none" stroke="black" points="519,-451 519,-526 593,-526 593,-451 519,-451"/>
<text text-anchor="middle" x="556" y="-510.8" font-family="Times,serif" font-size="14.00">Setup.hs</text>
</g>
<g id="clust3" class="cluster">
<title>cluster_3</title>
<polygon fill="none" stroke="black" points="8,-8 8,-443 1095,-443 1095,-8 8,-8"/>
<text text-anchor="middle" x="551.5" y="-427.8" font-family="Times,serif" font-size="14.00">src/Lib.hs</text>
</g>
<!-- main -->
<g id="node1" class="node">
<title>main</title>
<ellipse fill="#fb8072" stroke="#fb8072" cx="556" cy="-477" rx="28.7" ry="18"/>
<text text-anchor="middle" x="556" y="-473.3" font-family="Times,serif" font-size="14.00">main</text>
</g>
<!-- someFunc -->
<g id="node8" class="node">
<title>someFunc</title>
<ellipse fill="#bebada" stroke="#bebada" cx="556" cy="-394" rx="48.19" ry="18"/>
<text text-anchor="middle" x="556" y="-390.3" font-family="Times,serif" font-size="14.00">someFunc</text>
</g>
<!-- main&#45;&gt;someFunc -->
<g id="edge10" class="edge">
<title>main&#45;&gt;someFunc</title>
<path fill="none" stroke="black" d="M556,-458.82C556,-448.19 556,-434.31 556,-422.2"/>
<polygon fill="black" stroke="black" points="559.5,-422.15 556,-412.15 552.5,-422.15 559.5,-422.15"/>
</g>
<!-- wrapQuotes -->
<g id="node2" class="node">
<title>wrapQuotes</title>
<ellipse fill="#bebada" stroke="#bebada" cx="71" cy="-322" rx="54.69" ry="18"/>
<text text-anchor="middle" x="71" y="-318.3" font-family="Times,serif" font-size="14.00">wrapQuotes</text>
</g>
<!-- validateFunDef -->
<g id="node3" class="node">
<title>validateFunDef</title>
<ellipse fill="#bebada" stroke="#bebada" cx="211" cy="-322" rx="67.69" ry="18"/>
<text text-anchor="middle" x="211" y="-318.3" font-family="Times,serif" font-size="14.00">validateFunDef</text>
</g>
<!-- isValidChar -->
<g id="node11" class="node">
<title>isValidChar</title>
<ellipse fill="#bebada" stroke="#bebada" cx="216" cy="-250" rx="53.89" ry="18"/>
<text text-anchor="middle" x="216" y="-246.3" font-family="Times,serif" font-size="14.00">isValidChar</text>
</g>
<!-- validateFunDef&#45;&gt;isValidChar -->
<g id="edge27" class="edge">
<title>validateFunDef&#45;&gt;isValidChar</title>
<path fill="none" stroke="black" d="M212.24,-303.7C212.79,-295.98 213.45,-286.71 214.06,-278.11"/>
<polygon fill="black" stroke="black" points="217.56,-278.33 214.78,-268.1 210.57,-277.83 217.56,-278.33"/>
</g>
<!-- escape -->
<g id="node12" class="node">
<title>escape</title>
<ellipse fill="#bebada" stroke="#bebada" cx="323" cy="-250" rx="35.19" ry="18"/>
<text text-anchor="middle" x="323" y="-246.3" font-family="Times,serif" font-size="14.00">escape</text>
</g>
<!-- validateFunDef&#45;&gt;escape -->
<g id="edge26" class="edge">
<title>validateFunDef&#45;&gt;escape</title>
<path fill="none" stroke="black" d="M236.13,-305.29C252.83,-294.86 274.85,-281.09 292.54,-270.04"/>
<polygon fill="black" stroke="black" points="294.72,-272.8 301.35,-264.53 291.01,-266.87 294.72,-272.8"/>
</g>
<!-- validateFunAp -->
<g id="node4" class="node">
<title>validateFunAp</title>
<ellipse fill="#bebada" stroke="#bebada" cx="362" cy="-322" rx="64.99" ry="18"/>
<text text-anchor="middle" x="362" y="-318.3" font-family="Times,serif" font-size="14.00">validateFunAp</text>
</g>
<!-- toMaybe -->
<g id="node5" class="node">
<title>toMaybe</title>
<ellipse fill="#bebada" stroke="#bebada" cx="419" cy="-250" rx="42.79" ry="18"/>
<text text-anchor="middle" x="419" y="-246.3" font-family="Times,serif" font-size="14.00">toMaybe</text>
</g>
<!-- validateFunAp&#45;&gt;toMaybe -->
<g id="edge25" class="edge">
<title>validateFunAp&#45;&gt;toMaybe</title>
<path fill="none" stroke="black" d="M375.8,-304.05C382.83,-295.42 391.51,-284.76 399.24,-275.27"/>
<polygon fill="black" stroke="black" points="402.12,-277.27 405.72,-267.31 396.69,-272.85 402.12,-277.27"/>
</g>
<!-- validateFunAp&#45;&gt;isValidChar -->
<g id="edge24" class="edge">
<title>validateFunAp&#45;&gt;isValidChar</title>
<path fill="none" stroke="black" d="M331.04,-306.15C308.72,-295.46 278.45,-280.94 254.57,-269.49"/>
<polygon fill="black" stroke="black" points="255.95,-266.27 245.42,-265.11 252.93,-272.59 255.95,-266.27"/>
</g>
<!-- validateFunAp&#45;&gt;escape -->
<g id="edge23" class="edge">
<title>validateFunAp&#45;&gt;escape</title>
<path fill="none" stroke="black" d="M352.56,-304.05C347.96,-295.8 342.33,-285.7 337.23,-276.54"/>
<polygon fill="black" stroke="black" points="340.28,-274.82 332.35,-267.79 334.16,-278.23 340.28,-274.82"/>
</g>
<!-- takeUntil -->
<g id="node6" class="node">
<title>takeUntil</title>
<ellipse fill="#bebada" stroke="#bebada" cx="533" cy="-34" rx="44.69" ry="18"/>
<text text-anchor="middle" x="533" y="-30.3" font-family="Times,serif" font-size="14.00">takeUntil</text>
</g>
<!-- takeUntil&#45;&gt;takeUntil -->
<g id="edge22" class="edge">
<title>takeUntil&#45;&gt;takeUntil</title>
<path fill="none" stroke="black" d="M564.37,-46.99C580.88,-49.09 595.85,-44.76 595.85,-34 595.85,-25.51 586.53,-21.03 574.48,-20.54"/>
<polygon fill="black" stroke="black" points="574.19,-17.05 564.37,-21.01 574.52,-24.05 574.19,-17.05"/>
</g>
<!-- splitOn -->
<g id="node7" class="node">
<title>splitOn</title>
<ellipse fill="#bebada" stroke="#bebada" cx="596" cy="-106" rx="37.89" ry="18"/>
<text text-anchor="middle" x="596" y="-102.3" font-family="Times,serif" font-size="14.00">splitOn</text>
</g>
<!-- splitOn&#45;&gt;takeUntil -->
<g id="edge21" class="edge">
<title>splitOn&#45;&gt;takeUntil</title>
<path fill="none" stroke="black" d="M581.7,-89.12C573.68,-80.2 563.52,-68.91 554.55,-58.94"/>
<polygon fill="black" stroke="black" points="556.97,-56.4 547.68,-51.31 551.76,-61.08 556.97,-56.4"/>
</g>
<!-- dropUntil -->
<g id="node13" class="node">
<title>dropUntil</title>
<ellipse fill="#bebada" stroke="#bebada" cx="660" cy="-34" rx="46.29" ry="18"/>
<text text-anchor="middle" x="660" y="-30.3" font-family="Times,serif" font-size="14.00">dropUntil</text>
</g>
<!-- splitOn&#45;&gt;dropUntil -->
<g id="edge20" class="edge">
<title>splitOn&#45;&gt;dropUntil</title>
<path fill="none" stroke="black" d="M610.52,-89.12C618.67,-80.2 629,-68.91 638.11,-58.94"/>
<polygon fill="black" stroke="black" points="640.93,-61.05 645.09,-51.31 635.76,-56.33 640.93,-61.05"/>
</g>
<!-- someFunc&#45;&gt;wrapQuotes -->
<g id="edge19" class="edge">
<title>someFunc&#45;&gt;wrapQuotes</title>
<path fill="none" stroke="black" d="M509.46,-389.28C431.34,-382.56 269.12,-366.58 134,-340 129.57,-339.13 124.98,-338.11 120.41,-337.03"/>
<polygon fill="black" stroke="black" points="121.01,-333.57 110.46,-334.55 119.32,-340.36 121.01,-333.57"/>
</g>
<!-- someFunc&#45;&gt;validateFunDef -->
<g id="edge18" class="edge">
<title>someFunc&#45;&gt;validateFunDef</title>
<path fill="none" stroke="black" d="M514.16,-385.02C461.38,-374.89 367.85,-356.71 288,-340 282.56,-338.86 276.9,-337.66 271.24,-336.43"/>
<polygon fill="black" stroke="black" points="271.6,-332.93 261.08,-334.23 270.11,-339.77 271.6,-332.93"/>
</g>
<!-- someFunc&#45;&gt;validateFunAp -->
<g id="edge17" class="edge">
<title>someFunc&#45;&gt;validateFunAp</title>
<path fill="none" stroke="black" d="M522.65,-380.97C491.46,-369.71 444.54,-352.78 409.45,-340.12"/>
<polygon fill="black" stroke="black" points="410.49,-336.77 399.89,-336.67 408.11,-343.36 410.49,-336.77"/>
</g>
<!-- keywords -->
<g id="node9" class="node">
<title>keywords</title>
<ellipse fill="#bebada" stroke="#bebada" cx="491" cy="-322" rx="46.29" ry="18"/>
<text text-anchor="middle" x="491" y="-318.3" font-family="Times,serif" font-size="14.00">keywords</text>
</g>
<!-- someFunc&#45;&gt;keywords -->
<g id="edge16" class="edge">
<title>someFunc&#45;&gt;keywords</title>
<path fill="none" stroke="black" d="M540.92,-376.76C532.64,-367.84 522.21,-356.61 513.03,-346.72"/>
<polygon fill="black" stroke="black" points="515.36,-344.09 505.99,-339.15 510.23,-348.86 515.36,-344.09"/>
</g>
<!-- isValidOpeningChar -->
<g id="node10" class="node">
<title>isValidOpeningChar</title>
<ellipse fill="#bebada" stroke="#bebada" cx="260" cy="-178" rx="85.29" ry="18"/>
<text text-anchor="middle" x="260" y="-174.3" font-family="Times,serif" font-size="14.00">isValidOpeningChar</text>
</g>
<!-- someFunc&#45;&gt;isValidOpeningChar -->
<g id="edge15" class="edge">
<title>someFunc&#45;&gt;isValidOpeningChar</title>
<path fill="none" stroke="black" d="M557.94,-375.7C559.21,-356.8 558.74,-326.27 546,-304 532.76,-280.85 516.86,-286.86 498,-268 483.86,-253.86 487.66,-243.07 471,-232 434.39,-207.66 387.46,-194.5 347.15,-187.38"/>
<polygon fill="black" stroke="black" points="347.5,-183.89 337.06,-185.7 346.35,-190.8 347.5,-183.89"/>
</g>
<!-- dropStringLiterals -->
<g id="node14" class="node">
<title>dropStringLiterals</title>
<ellipse fill="#bebada" stroke="#bebada" cx="652" cy="-322" rx="77.19" ry="18"/>
<text text-anchor="middle" x="652" y="-318.3" font-family="Times,serif" font-size="14.00">dropStringLiterals</text>
</g>
<!-- someFunc&#45;&gt;dropStringLiterals -->
<g id="edge14" class="edge">
<title>someFunc&#45;&gt;dropStringLiterals</title>
<path fill="none" stroke="black" d="M577.31,-377.46C590.23,-368.04 606.95,-355.85 621.29,-345.39"/>
<polygon fill="black" stroke="black" points="623.4,-348.19 629.42,-339.47 619.27,-342.53 623.4,-348.19"/>
</g>
<!-- dropSqlTH -->
<g id="node15" class="node">
<title>dropSqlTH</title>
<ellipse fill="#bebada" stroke="#bebada" cx="577" cy="-250" rx="51.99" ry="18"/>
<text text-anchor="middle" x="577" y="-246.3" font-family="Times,serif" font-size="14.00">dropSqlTH</text>
</g>
<!-- someFunc&#45;&gt;dropSqlTH -->
<g id="edge13" class="edge">
<title>someFunc&#45;&gt;dropSqlTH</title>
<path fill="none" stroke="black" d="M599.85,-386.36C648.21,-378.03 721.41,-362.11 738,-340 747.6,-327.2 747.38,-316.96 738,-304 734.51,-299.18 671.24,-279.32 625.08,-265.33"/>
<polygon fill="black" stroke="black" points="625.8,-261.89 615.22,-262.35 623.78,-268.6 625.8,-261.89"/>
</g>
<!-- dropComments -->
<g id="node18" class="node">
<title>dropComments</title>
<ellipse fill="#bebada" stroke="#bebada" cx="834" cy="-322" rx="66.89" ry="18"/>
<text text-anchor="middle" x="834" y="-318.3" font-family="Times,serif" font-size="14.00">dropComments</text>
</g>
<!-- someFunc&#45;&gt;dropComments -->
<g id="edge12" class="edge">
<title>someFunc&#45;&gt;dropComments</title>
<path fill="none" stroke="black" d="M594.65,-383.27C641.99,-371.35 722.56,-351.06 777,-337.35"/>
<polygon fill="black" stroke="black" points="778.01,-340.71 786.85,-334.87 776.3,-333.92 778.01,-340.71"/>
</g>
<!-- defaultParseContext -->
<g id="node21" class="node">
<title>defaultParseContext</title>
<ellipse fill="#bebada" stroke="#bebada" cx="1003" cy="-322" rx="84.49" ry="18"/>
<text text-anchor="middle" x="1003" y="-318.3" font-family="Times,serif" font-size="14.00">defaultParseContext</text>
</g>
<!-- someFunc&#45;&gt;defaultParseContext -->
<g id="edge11" class="edge">
<title>someFunc&#45;&gt;defaultParseContext</title>
<path fill="none" stroke="black" d="M600.22,-386.85C667.3,-377.4 798.74,-358.49 910,-340 917.07,-338.83 924.43,-337.56 931.78,-336.26"/>
<polygon fill="black" stroke="black" points="932.54,-339.68 941.77,-334.48 931.31,-332.79 932.54,-339.68"/>
</g>
<!-- isValidChar&#45;&gt;isValidOpeningChar -->
<g id="edge9" class="edge">
<title>isValidChar&#45;&gt;isValidOpeningChar</title>
<path fill="none" stroke="black" d="M226.65,-232.05C231.76,-223.92 238,-214 243.69,-204.94"/>
<polygon fill="black" stroke="black" points="246.78,-206.6 249.14,-196.28 240.86,-202.88 246.78,-206.6"/>
</g>
<!-- dropUntil&#45;&gt;dropUntil -->
<g id="edge8" class="edge">
<title>dropUntil&#45;&gt;dropUntil</title>
<path fill="none" stroke="black" d="M692.01,-46.99C708.87,-49.09 724.15,-44.76 724.15,-34 724.15,-25.51 714.64,-21.03 702.34,-20.54"/>
<polygon fill="black" stroke="black" points="701.84,-17.06 692.01,-21.01 702.16,-24.06 701.84,-17.06"/>
</g>
<!-- dropBetweenWithEscape -->
<g id="node19" class="node">
<title>dropBetweenWithEscape</title>
<ellipse fill="#bebada" stroke="#bebada" cx="506" cy="-178" rx="102.88" ry="18"/>
<text text-anchor="middle" x="506" y="-174.3" font-family="Times,serif" font-size="14.00">dropBetweenWithEscape</text>
</g>
<!-- dropStringLiterals&#45;&gt;dropBetweenWithEscape -->
<g id="edge7" class="edge">
<title>dropStringLiterals&#45;&gt;dropBetweenWithEscape</title>
<path fill="none" stroke="black" d="M589.14,-311.31C562.51,-303.92 533.61,-290.9 516,-268 502.71,-250.71 500.98,-225.65 502.13,-206.53"/>
<polygon fill="black" stroke="black" points="505.64,-206.6 503.05,-196.33 498.67,-205.98 505.64,-206.6"/>
</g>
<!-- dropBetween -->
<g id="node20" class="node">
<title>dropBetween</title>
<ellipse fill="#bebada" stroke="#bebada" cx="686" cy="-178" rx="59.29" ry="18"/>
<text text-anchor="middle" x="686" y="-174.3" font-family="Times,serif" font-size="14.00">dropBetween</text>
</g>
<!-- dropSqlTH&#45;&gt;dropBetween -->
<g id="edge6" class="edge">
<title>dropSqlTH&#45;&gt;dropBetween</title>
<path fill="none" stroke="black" d="M600.65,-233.81C616.01,-223.95 636.23,-210.96 653.14,-200.1"/>
<polygon fill="black" stroke="black" points="655.12,-202.99 661.64,-194.64 651.33,-197.1 655.12,-202.99"/>
</g>
<!-- dropSingleLineComments -->
<g id="node16" class="node">
<title>dropSingleLineComments</title>
<ellipse fill="#bebada" stroke="#bebada" cx="754" cy="-250" rx="106.68" ry="18"/>
<text text-anchor="middle" x="754" y="-246.3" font-family="Times,serif" font-size="14.00">dropSingleLineComments</text>
</g>
<!-- dropMultiLineComments -->
<g id="node17" class="node">
<title>dropMultiLineComments</title>
<ellipse fill="#bebada" stroke="#bebada" cx="983" cy="-250" rx="103.98" ry="18"/>
<text text-anchor="middle" x="983" y="-246.3" font-family="Times,serif" font-size="14.00">dropMultiLineComments</text>
</g>
<!-- dropMultiLineComments&#45;&gt;dropBetween -->
<g id="edge5" class="edge">
<title>dropMultiLineComments&#45;&gt;dropBetween</title>
<path fill="none" stroke="black" d="M923.97,-235.09C870.84,-222.56 793.35,-204.3 741.38,-192.05"/>
<polygon fill="black" stroke="black" points="741.87,-188.57 731.34,-189.69 740.27,-195.39 741.87,-188.57"/>
</g>
<!-- dropComments&#45;&gt;dropSingleLineComments -->
<g id="edge4" class="edge">
<title>dropComments&#45;&gt;dropSingleLineComments</title>
<path fill="none" stroke="black" d="M815.04,-304.41C804.85,-295.5 792.12,-284.36 780.92,-274.56"/>
<polygon fill="black" stroke="black" points="782.93,-271.66 773.1,-267.71 778.32,-276.93 782.93,-271.66"/>
</g>
<!-- dropComments&#45;&gt;dropMultiLineComments -->
<g id="edge3" class="edge">
<title>dropComments&#45;&gt;dropMultiLineComments</title>
<path fill="none" stroke="black" d="M865.96,-305.98C887.48,-295.88 916.11,-282.42 939.67,-271.36"/>
<polygon fill="black" stroke="black" points="941.19,-274.51 948.75,-267.09 938.22,-268.17 941.19,-274.51"/>
</g>
<!-- dropBetweenWithEscape&#45;&gt;splitOn -->
<g id="edge2" class="edge">
<title>dropBetweenWithEscape&#45;&gt;splitOn</title>
<path fill="none" stroke="black" d="M527.79,-160.05C540.16,-150.43 555.76,-138.29 568.92,-128.06"/>
<polygon fill="black" stroke="black" points="571.41,-130.56 577.16,-121.66 567.11,-125.03 571.41,-130.56"/>
</g>
<!-- dropBetween&#45;&gt;splitOn -->
<g id="edge1" class="edge">
<title>dropBetween&#45;&gt;splitOn</title>
<path fill="none" stroke="black" d="M665.13,-160.76C652.57,-151 636.45,-138.46 622.94,-127.96"/>
<polygon fill="black" stroke="black" points="624.96,-125.09 614.92,-121.72 620.67,-130.62 624.96,-125.09"/>
</g>
</g>
</svg>
