<?xml version="1.0" encoding="UTF-8" standalone="no"?>
<!DOCTYPE svg PUBLIC "-//W3C//DTD SVG 1.1//EN"
 "http://www.w3.org/Graphics/SVG/1.1/DTD/svg11.dtd">
<!-- Generated by graphviz version 2.49.3 (20211023.0002)
 -->
<!-- Title: deps Pages: 1 -->
<svg width="1131pt" height="476pt"
 viewBox="0.00 0.00 1131.09 476.00" xmlns="http://www.w3.org/2000/svg" xmlns:xlink="http://www.w3.org/1999/xlink">
<g id="graph0" class="graph" transform="scale(1 1) rotate(0) translate(4 472)">
<title>deps</title>
<polygon fill="white" stroke="transparent" points="-4,4 -4,-472 1127.09,-472 1127.09,4 -4,4"/>
<!-- main -->
<g id="node1" class="node">
<title>main</title>
<ellipse fill="#fb8072" stroke="#fb8072" cx="513.6" cy="-450" rx="28.7" ry="18"/>
<text text-anchor="middle" x="513.6" y="-446.3" font-family="Times,serif" font-size="14.00">main</text>
</g>
<!-- someFunc -->
<g id="node8" class="node">
<title>someFunc</title>
<ellipse fill="#bebada" stroke="#bebada" cx="513.6" cy="-378" rx="48.19" ry="18"/>
<text text-anchor="middle" x="513.6" y="-374.3" font-family="Times,serif" font-size="14.00">someFunc</text>
</g>
<!-- main&#45;&gt;someFunc -->
<g id="edge10" class="edge">
<title>main&#45;&gt;someFunc</title>
<path fill="none" stroke="black" d="M513.6,-431.7C513.6,-423.98 513.6,-414.71 513.6,-406.11"/>
<polygon fill="black" stroke="black" points="517.1,-406.1 513.6,-396.1 510.1,-406.1 517.1,-406.1"/>
</g>
<!-- wrapQuotes -->
<g id="node2" class="node">
<title>wrapQuotes</title>
<ellipse fill="#bebada" stroke="#bebada" cx="54.6" cy="-306" rx="54.69" ry="18"/>
<text text-anchor="middle" x="54.6" y="-302.3" font-family="Times,serif" font-size="14.00">wrapQuotes</text>
</g>
<!-- validateFunDef -->
<g id="node3" class="node">
<title>validateFunDef</title>
<ellipse fill="#bebada" stroke="#bebada" cx="233.6" cy="-306" rx="67.69" ry="18"/>
<text text-anchor="middle" x="233.6" y="-302.3" font-family="Times,serif" font-size="14.00">validateFunDef</text>
</g>
<!-- isValidChar -->
<g id="node11" class="node">
<title>isValidChar</title>
<ellipse fill="#bebada" stroke="#bebada" cx="219.6" cy="-234" rx="53.89" ry="18"/>
<text text-anchor="middle" x="219.6" y="-230.3" font-family="Times,serif" font-size="14.00">isValidChar</text>
</g>
<!-- validateFunDef&#45;&gt;isValidChar -->
<g id="edge27" class="edge">
<title>validateFunDef&#45;&gt;isValidChar</title>
<path fill="none" stroke="black" d="M230.13,-287.7C228.59,-279.98 226.74,-270.71 225.02,-262.11"/>
<polygon fill="black" stroke="black" points="228.41,-261.22 223.02,-252.1 221.55,-262.6 228.41,-261.22"/>
</g>
<!-- escape -->
<g id="node12" class="node">
<title>escape</title>
<ellipse fill="#bebada" stroke="#bebada" cx="326.6" cy="-234" rx="35.19" ry="18"/>
<text text-anchor="middle" x="326.6" y="-230.3" font-family="Times,serif" font-size="14.00">escape</text>
</g>
<!-- validateFunDef&#45;&gt;escape -->
<g id="edge26" class="edge">
<title>validateFunDef&#45;&gt;escape</title>
<path fill="none" stroke="black" d="M255.16,-288.76C268.32,-278.86 285.25,-266.12 299.33,-255.52"/>
<polygon fill="black" stroke="black" points="301.78,-258.06 307.66,-249.25 297.57,-252.47 301.78,-258.06"/>
</g>
<!-- validateFunAp -->
<g id="node4" class="node">
<title>validateFunAp</title>
<ellipse fill="#bebada" stroke="#bebada" cx="384.6" cy="-306" rx="64.99" ry="18"/>
<text text-anchor="middle" x="384.6" y="-302.3" font-family="Times,serif" font-size="14.00">validateFunAp</text>
</g>
<!-- toMaybe -->
<g id="node5" class="node">
<title>toMaybe</title>
<ellipse fill="#bebada" stroke="#bebada" cx="422.6" cy="-234" rx="42.79" ry="18"/>
<text text-anchor="middle" x="422.6" y="-230.3" font-family="Times,serif" font-size="14.00">toMaybe</text>
</g>
<!-- validateFunAp&#45;&gt;toMaybe -->
<g id="edge25" class="edge">
<title>validateFunAp&#45;&gt;toMaybe</title>
<path fill="none" stroke="black" d="M393.79,-288.05C398.23,-279.89 403.64,-269.91 408.58,-260.82"/>
<polygon fill="black" stroke="black" points="411.79,-262.25 413.48,-251.79 405.63,-258.91 411.79,-262.25"/>
</g>
<!-- validateFunAp&#45;&gt;isValidChar -->
<g id="edge24" class="edge">
<title>validateFunAp&#45;&gt;isValidChar</title>
<path fill="none" stroke="black" d="M350.41,-290.5C324.4,-279.46 288.5,-264.23 260.89,-252.52"/>
<polygon fill="black" stroke="black" points="262.07,-249.22 251.5,-248.54 259.34,-255.66 262.07,-249.22"/>
</g>
<!-- validateFunAp&#45;&gt;escape -->
<g id="edge23" class="edge">
<title>validateFunAp&#45;&gt;escape</title>
<path fill="none" stroke="black" d="M370.55,-288.05C363.22,-279.2 354.13,-268.23 346.12,-258.57"/>
<polygon fill="black" stroke="black" points="348.79,-256.3 339.71,-250.83 343.4,-260.76 348.79,-256.3"/>
</g>
<!-- takeUntil -->
<g id="node6" class="node">
<title>takeUntil</title>
<ellipse fill="#bebada" stroke="#bebada" cx="736.6" cy="-18" rx="44.69" ry="18"/>
<text text-anchor="middle" x="736.6" y="-14.3" font-family="Times,serif" font-size="14.00">takeUntil</text>
</g>
<!-- takeUntil&#45;&gt;takeUntil -->
<g id="edge22" class="edge">
<title>takeUntil&#45;&gt;takeUntil</title>
<path fill="none" stroke="black" d="M767.96,-30.99C784.48,-33.09 799.44,-28.76 799.44,-18 799.44,-9.51 790.12,-5.03 778.08,-4.54"/>
<polygon fill="black" stroke="black" points="777.79,-1.05 767.96,-5.01 778.11,-8.05 777.79,-1.05"/>
</g>
<!-- splitOn -->
<g id="node7" class="node">
<title>splitOn</title>
<ellipse fill="#bebada" stroke="#bebada" cx="799.6" cy="-90" rx="37.89" ry="18"/>
<text text-anchor="middle" x="799.6" y="-86.3" font-family="Times,serif" font-size="14.00">splitOn</text>
</g>
<!-- splitOn&#45;&gt;takeUntil -->
<g id="edge21" class="edge">
<title>splitOn&#45;&gt;takeUntil</title>
<path fill="none" stroke="black" d="M785.3,-73.12C777.28,-64.2 767.11,-52.91 758.14,-42.94"/>
<polygon fill="black" stroke="black" points="760.56,-40.4 751.27,-35.31 755.36,-45.08 760.56,-40.4"/>
</g>
<!-- dropUntil -->
<g id="node13" class="node">
<title>dropUntil</title>
<ellipse fill="#bebada" stroke="#bebada" cx="863.6" cy="-18" rx="46.29" ry="18"/>
<text text-anchor="middle" x="863.6" y="-14.3" font-family="Times,serif" font-size="14.00">dropUntil</text>
</g>
<!-- splitOn&#45;&gt;dropUntil -->
<g id="edge20" class="edge">
<title>splitOn&#45;&gt;dropUntil</title>
<path fill="none" stroke="black" d="M814.12,-73.12C822.27,-64.2 832.6,-52.91 841.71,-42.94"/>
<polygon fill="black" stroke="black" points="844.52,-45.05 848.69,-35.31 839.36,-40.33 844.52,-45.05"/>
</g>
<!-- someFunc&#45;&gt;wrapQuotes -->
<g id="edge19" class="edge">
<title>someFunc&#45;&gt;wrapQuotes</title>
<path fill="none" stroke="black" d="M467.71,-372.37C394.54,-364.62 247.1,-347.54 123.6,-324 117.77,-322.89 111.7,-321.6 105.69,-320.23"/>
<polygon fill="black" stroke="black" points="106.2,-316.76 95.67,-317.88 104.6,-323.57 106.2,-316.76"/>
</g>
<!-- someFunc&#45;&gt;validateFunDef -->
<g id="edge18" class="edge">
<title>someFunc&#45;&gt;validateFunDef</title>
<path fill="none" stroke="black" d="M474.66,-367.27C426.99,-355.35 345.84,-335.06 291,-321.35"/>
<polygon fill="black" stroke="black" points="291.63,-317.9 281.08,-318.87 289.94,-324.69 291.63,-317.9"/>
</g>
<!-- someFunc&#45;&gt;validateFunAp -->
<g id="edge17" class="edge">
<title>someFunc&#45;&gt;validateFunAp</title>
<path fill="none" stroke="black" d="M487.49,-362.83C468.64,-352.6 442.9,-338.64 421.88,-327.23"/>
<polygon fill="black" stroke="black" points="423.36,-324.05 412.9,-322.36 420.02,-330.2 423.36,-324.05"/>
</g>
<!-- keywords -->
<g id="node9" class="node">
<title>keywords</title>
<ellipse fill="#bebada" stroke="#bebada" cx="513.6" cy="-306" rx="46.29" ry="18"/>
<text text-anchor="middle" x="513.6" y="-302.3" font-family="Times,serif" font-size="14.00">keywords</text>
</g>
<!-- someFunc&#45;&gt;keywords -->
<g id="edge16" class="edge">
<title>someFunc&#45;&gt;keywords</title>
<path fill="none" stroke="black" d="M513.6,-359.7C513.6,-351.98 513.6,-342.71 513.6,-334.11"/>
<polygon fill="black" stroke="black" points="517.1,-334.1 513.6,-324.1 510.1,-334.1 517.1,-334.1"/>
</g>
<!-- isValidOpeningChar -->
<g id="node10" class="node">
<title>isValidOpeningChar</title>
<ellipse fill="#bebada" stroke="#bebada" cx="178.6" cy="-162" rx="85.29" ry="18"/>
<text text-anchor="middle" x="178.6" y="-158.3" font-family="Times,serif" font-size="14.00">isValidOpeningChar</text>
</g>
<!-- someFunc&#45;&gt;isValidOpeningChar -->
<g id="edge15" class="edge">
<title>someFunc&#45;&gt;isValidOpeningChar</title>
<path fill="none" stroke="black" d="M465.52,-377.26C377.52,-376.61 195.93,-369.61 156.6,-324 124.09,-286.31 146.83,-224.11 164.11,-189.08"/>
<polygon fill="black" stroke="black" points="167.34,-190.46 168.79,-179.96 161.11,-187.26 167.34,-190.46"/>
</g>
<!-- dropStringLiterals -->
<g id="node14" class="node">
<title>dropStringLiterals</title>
<ellipse fill="#bebada" stroke="#bebada" cx="858.6" cy="-306" rx="77.19" ry="18"/>
<text text-anchor="middle" x="858.6" y="-302.3" font-family="Times,serif" font-size="14.00">dropStringLiterals</text>
</g>
<!-- someFunc&#45;&gt;dropStringLiterals -->
<g id="edge14" class="edge">
<title>someFunc&#45;&gt;dropStringLiterals</title>
<path fill="none" stroke="black" d="M554.87,-368.63C613.68,-356.69 722.23,-334.67 792.37,-320.44"/>
<polygon fill="black" stroke="black" points="793.33,-323.81 802.43,-318.4 791.93,-316.95 793.33,-323.81"/>
</g>
<!-- dropSqlTH -->
<g id="node15" class="node">
<title>dropSqlTH</title>
<ellipse fill="#bebada" stroke="#bebada" cx="535.6" cy="-234" rx="51.99" ry="18"/>
<text text-anchor="middle" x="535.6" y="-230.3" font-family="Times,serif" font-size="14.00">dropSqlTH</text>
</g>
<!-- someFunc&#45;&gt;dropSqlTH -->
<g id="edge13" class="edge">
<title>someFunc&#45;&gt;dropSqlTH</title>
<path fill="none" stroke="black" d="M536.4,-362C548.42,-352.66 562.01,-339.5 568.6,-324 577.68,-302.63 566.76,-277.81 555.11,-259.82"/>
<polygon fill="black" stroke="black" points="557.98,-257.82 549.41,-251.58 552.22,-261.8 557.98,-257.82"/>
</g>
<!-- dropComments -->
<g id="node18" class="node">
<title>dropComments</title>
<ellipse fill="#bebada" stroke="#bebada" cx="696.6" cy="-306" rx="66.89" ry="18"/>
<text text-anchor="middle" x="696.6" y="-302.3" font-family="Times,serif" font-size="14.00">dropComments</text>
</g>
<!-- someFunc&#45;&gt;dropComments -->
<g id="edge12" class="edge">
<title>someFunc&#45;&gt;dropComments</title>
<path fill="none" stroke="black" d="M545.89,-364.65C574.72,-353.62 617.28,-337.34 649.83,-324.89"/>
<polygon fill="black" stroke="black" points="651.5,-328 659.58,-321.16 648.99,-321.46 651.5,-328"/>
</g>
<!-- defaultParseContext -->
<g id="node21" class="node">
<title>defaultParseContext</title>
<ellipse fill="#bebada" stroke="#bebada" cx="1038.6" cy="-306" rx="84.49" ry="18"/>
<text text-anchor="middle" x="1038.6" y="-302.3" font-family="Times,serif" font-size="14.00">defaultParseContext</text>
</g>
<!-- someFunc&#45;&gt;defaultParseContext -->
<g id="edge11" class="edge">
<title>someFunc&#45;&gt;defaultParseContext</title>
<path fill="none" stroke="black" d="M559.32,-372.24C638.15,-363.83 804.65,-345.24 944.6,-324 952.15,-322.85 960.02,-321.57 967.86,-320.23"/>
<polygon fill="black" stroke="black" points="968.49,-323.68 977.75,-318.52 967.3,-316.78 968.49,-323.68"/>
</g>
<!-- isValidChar&#45;&gt;isValidOpeningChar -->
<g id="edge9" class="edge">
<title>isValidChar&#45;&gt;isValidOpeningChar</title>
<path fill="none" stroke="black" d="M209.67,-216.05C204.91,-207.92 199.09,-198 193.79,-188.94"/>
<polygon fill="black" stroke="black" points="196.79,-187.14 188.71,-180.28 190.75,-190.67 196.79,-187.14"/>
</g>
<!-- dropUntil&#45;&gt;dropUntil -->
<g id="edge8" class="edge">
<title>dropUntil&#45;&gt;dropUntil</title>
<path fill="none" stroke="black" d="M895.61,-30.99C912.47,-33.09 927.74,-28.76 927.74,-18 927.74,-9.51 918.23,-5.03 905.94,-4.54"/>
<polygon fill="black" stroke="black" points="905.44,-1.06 895.61,-5.01 905.76,-8.06 905.44,-1.06"/>
</g>
<!-- dropBetweenWithEscape -->
<g id="node19" class="node">
<title>dropBetweenWithEscape</title>
<ellipse fill="#bebada" stroke="#bebada" cx="981.6" cy="-162" rx="102.88" ry="18"/>
<text text-anchor="middle" x="981.6" y="-158.3" font-family="Times,serif" font-size="14.00">dropBetweenWithEscape</text>
</g>
<!-- dropStringLiterals&#45;&gt;dropBetweenWithEscape -->
<g id="edge7" class="edge">
<title>dropStringLiterals&#45;&gt;dropBetweenWithEscape</title>
<path fill="none" stroke="black" d="M914.45,-293.5C969.26,-281.66 1045.89,-263.37 1054.6,-252 1064.32,-239.3 1061.86,-230.25 1054.6,-216 1048.07,-203.2 1036.85,-192.77 1025.13,-184.65"/>
<polygon fill="black" stroke="black" points="1026.88,-181.61 1016.58,-179.15 1023.09,-187.5 1026.88,-181.61"/>
</g>
<!-- dropBetween -->
<g id="node20" class="node">
<title>dropBetween</title>
<ellipse fill="#bebada" stroke="#bebada" cx="709.6" cy="-162" rx="59.29" ry="18"/>
<text text-anchor="middle" x="709.6" y="-158.3" font-family="Times,serif" font-size="14.00">dropBetween</text>
</g>
<!-- dropSqlTH&#45;&gt;dropBetween -->
<g id="edge6" class="edge">
<title>dropSqlTH&#45;&gt;dropBetween</title>
<path fill="none" stroke="black" d="M568.32,-219.83C595.86,-208.76 635.48,-192.82 665.75,-180.64"/>
<polygon fill="black" stroke="black" points="667.26,-183.81 675.23,-176.83 664.64,-177.31 667.26,-183.81"/>
</g>
<!-- dropSingleLineComments -->
<g id="node16" class="node">
<title>dropSingleLineComments</title>
<ellipse fill="#bebada" stroke="#bebada" cx="938.6" cy="-234" rx="106.68" ry="18"/>
<text text-anchor="middle" x="938.6" y="-230.3" font-family="Times,serif" font-size="14.00">dropSingleLineComments</text>
</g>
<!-- dropMultiLineComments -->
<g id="node17" class="node">
<title>dropMultiLineComments</title>
<ellipse fill="#bebada" stroke="#bebada" cx="709.6" cy="-234" rx="103.98" ry="18"/>
<text text-anchor="middle" x="709.6" y="-230.3" font-family="Times,serif" font-size="14.00">dropMultiLineComments</text>
</g>
<!-- dropMultiLineComments&#45;&gt;dropBetween -->
<g id="edge5" class="edge">
<title>dropMultiLineComments&#45;&gt;dropBetween</title>
<path fill="none" stroke="black" d="M709.6,-215.7C709.6,-207.98 709.6,-198.71 709.6,-190.11"/>
<polygon fill="black" stroke="black" points="713.1,-190.1 709.6,-180.1 706.1,-190.1 713.1,-190.1"/>
</g>
<!-- dropComments&#45;&gt;dropSingleLineComments -->
<g id="edge4" class="edge">
<title>dropComments&#45;&gt;dropSingleLineComments</title>
<path fill="none" stroke="black" d="M740.42,-292.32C778.71,-281.25 834.69,-265.06 877.4,-252.7"/>
<polygon fill="black" stroke="black" points="878.49,-256.03 887.12,-249.89 876.54,-249.31 878.49,-256.03"/>
</g>
<!-- dropComments&#45;&gt;dropMultiLineComments -->
<g id="edge3" class="edge">
<title>dropComments&#45;&gt;dropMultiLineComments</title>
<path fill="none" stroke="black" d="M699.81,-287.7C701.24,-279.98 702.96,-270.71 704.56,-262.11"/>
<polygon fill="black" stroke="black" points="708.03,-262.58 706.42,-252.1 701.15,-261.3 708.03,-262.58"/>
</g>
<!-- dropBetweenWithEscape&#45;&gt;splitOn -->
<g id="edge2" class="edge">
<title>dropBetweenWithEscape&#45;&gt;splitOn</title>
<path fill="none" stroke="black" d="M940.75,-145.29C909.83,-133.4 867.66,-117.18 837.49,-105.57"/>
<polygon fill="black" stroke="black" points="838.73,-102.3 828.14,-101.98 836.22,-108.84 838.73,-102.3"/>
</g>
<!-- dropBetween&#45;&gt;splitOn -->
<g id="edge1" class="edge">
<title>dropBetween&#45;&gt;splitOn</title>
<path fill="none" stroke="black" d="M730.47,-144.76C743.03,-135 759.14,-122.46 772.65,-111.96"/>
<polygon fill="black" stroke="black" points="774.93,-114.62 780.67,-105.72 770.63,-109.09 774.93,-114.62"/>
</g>
</g>
</svg>
