<?xml version="1.0" encoding="UTF-8" standalone="no"?>
<!DOCTYPE svg PUBLIC "-//W3C//DTD SVG 1.1//EN"
 "http://www.w3.org/Graphics/SVG/1.1/DTD/svg11.dtd">
<!-- Generated by graphviz version 2.38.0 (20140413.2041)
 -->
<!-- Title: deps Pages: 1 -->
<svg width="961pt" height="476pt"
 viewBox="0.00 0.00 961.29 476.00" xmlns="http://www.w3.org/2000/svg" xmlns:xlink="http://www.w3.org/1999/xlink">
<g id="graph0" class="graph" transform="scale(1 1) rotate(0) translate(4 472)">
<title>deps</title>
<polygon fill="white" stroke="none" points="-4,4 -4,-472 957.287,-472 957.287,4 -4,4"/>
<!-- defaultParseContext -->
<g id="node1" class="node"><title>defaultParseContext</title>
<ellipse fill="none" stroke="black" cx="161.041" cy="-306" rx="81.7856" ry="18"/>
<text text-anchor="middle" x="161.041" y="-302.3" font-family="Times,serif" font-size="14.00">defaultParseContext</text>
</g>
<!-- dropBetween -->
<g id="node2" class="node"><title>dropBetween</title>
<ellipse fill="none" stroke="black" cx="386.041" cy="-162" rx="57.6901" ry="18"/>
<text text-anchor="middle" x="386.041" y="-158.3" font-family="Times,serif" font-size="14.00">dropBetween</text>
</g>
<!-- splitOn -->
<g id="node14" class="node"><title>splitOn</title>
<ellipse fill="none" stroke="black" cx="474.041" cy="-90" rx="36.2938" ry="18"/>
<text text-anchor="middle" x="474.041" y="-86.3" font-family="Times,serif" font-size="14.00">splitOn</text>
</g>
<!-- dropBetween&#45;&gt;splitOn -->
<g id="edge2" class="edge"><title>dropBetween&#45;&gt;splitOn</title>
<path fill="none" stroke="black" d="M406.451,-144.765C418.729,-134.998 434.486,-122.464 447.697,-111.956"/>
<polygon fill="black" stroke="black" points="449.892,-114.681 455.54,-105.717 445.535,-109.203 449.892,-114.681"/>
</g>
<!-- dropBetweenWithEscape -->
<g id="node3" class="node"><title>dropBetweenWithEscape</title>
<ellipse fill="none" stroke="black" cx="563.041" cy="-162" rx="100.983" ry="18"/>
<text text-anchor="middle" x="563.041" y="-158.3" font-family="Times,serif" font-size="14.00">dropBetweenWithEscape</text>
</g>
<!-- dropBetweenWithEscape&#45;&gt;splitOn -->
<g id="edge3" class="edge"><title>dropBetweenWithEscape&#45;&gt;splitOn</title>
<path fill="none" stroke="black" d="M541.497,-144.055C529.258,-134.429 513.83,-122.295 500.818,-112.061"/>
<polygon fill="black" stroke="black" points="502.698,-109.087 492.675,-105.656 498.371,-114.589 502.698,-109.087"/>
</g>
<!-- dropComments -->
<g id="node4" class="node"><title>dropComments</title>
<ellipse fill="none" stroke="black" cx="327.041" cy="-306" rx="65.7887" ry="18"/>
<text text-anchor="middle" x="327.041" y="-302.3" font-family="Times,serif" font-size="14.00">dropComments</text>
</g>
<!-- dropMultiLineComments -->
<g id="node5" class="node"><title>dropMultiLineComments</title>
<ellipse fill="none" stroke="black" cx="102.041" cy="-234" rx="102.082" ry="18"/>
<text text-anchor="middle" x="102.041" y="-230.3" font-family="Times,serif" font-size="14.00">dropMultiLineComments</text>
</g>
<!-- dropComments&#45;&gt;dropMultiLineComments -->
<g id="edge4" class="edge"><title>dropComments&#45;&gt;dropMultiLineComments</title>
<path fill="none" stroke="black" d="M285.247,-291.998C249.983,-281.026 199.131,-265.206 159.944,-253.014"/>
<polygon fill="black" stroke="black" points="160.838,-249.627 150.25,-249.998 158.759,-256.311 160.838,-249.627"/>
</g>
<!-- dropSingleLineComments -->
<g id="node6" class="node"><title>dropSingleLineComments</title>
<ellipse fill="none" stroke="black" cx="327.041" cy="-234" rx="104.782" ry="18"/>
<text text-anchor="middle" x="327.041" y="-230.3" font-family="Times,serif" font-size="14.00">dropSingleLineComments</text>
</g>
<!-- dropComments&#45;&gt;dropSingleLineComments -->
<g id="edge5" class="edge"><title>dropComments&#45;&gt;dropSingleLineComments</title>
<path fill="none" stroke="black" d="M327.041,-287.697C327.041,-279.983 327.041,-270.712 327.041,-262.112"/>
<polygon fill="black" stroke="black" points="330.541,-262.104 327.041,-252.104 323.541,-262.104 330.541,-262.104"/>
</g>
<!-- dropMultiLineComments&#45;&gt;dropBetween -->
<g id="edge6" class="edge"><title>dropMultiLineComments&#45;&gt;dropBetween</title>
<path fill="none" stroke="black" d="M158.83,-219.003C209.259,-206.573 282.441,-188.535 332.016,-176.316"/>
<polygon fill="black" stroke="black" points="333.039,-179.669 341.911,-173.877 331.364,-172.872 333.039,-179.669"/>
</g>
<!-- dropSqlTH -->
<g id="node7" class="node"><title>dropSqlTH</title>
<ellipse fill="none" stroke="black" cx="461.041" cy="-306" rx="50.0912" ry="18"/>
<text text-anchor="middle" x="461.041" y="-302.3" font-family="Times,serif" font-size="14.00">dropSqlTH</text>
</g>
<!-- dropSqlTH&#45;&gt;dropBetween -->
<g id="edge7" class="edge"><title>dropSqlTH&#45;&gt;dropBetween</title>
<path fill="none" stroke="black" d="M460.113,-287.89C458.459,-269.163 453.854,-238.774 441.041,-216 434.64,-204.624 425.03,-194.16 415.625,-185.589"/>
<polygon fill="black" stroke="black" points="417.699,-182.755 407.847,-178.856 413.117,-188.047 417.699,-182.755"/>
</g>
<!-- dropStringLiterals -->
<g id="node8" class="node"><title>dropStringLiterals</title>
<ellipse fill="none" stroke="black" cx="563.041" cy="-234" rx="75.2868" ry="18"/>
<text text-anchor="middle" x="563.041" y="-230.3" font-family="Times,serif" font-size="14.00">dropStringLiterals</text>
</g>
<!-- dropStringLiterals&#45;&gt;dropBetweenWithEscape -->
<g id="edge8" class="edge"><title>dropStringLiterals&#45;&gt;dropBetweenWithEscape</title>
<path fill="none" stroke="black" d="M563.041,-215.697C563.041,-207.983 563.041,-198.712 563.041,-190.112"/>
<polygon fill="black" stroke="black" points="566.541,-190.104 563.041,-180.104 559.541,-190.104 566.541,-190.104"/>
</g>
<!-- dropUntil -->
<g id="node9" class="node"><title>dropUntil</title>
<ellipse fill="none" stroke="black" cx="412.041" cy="-18" rx="44.6926" ry="18"/>
<text text-anchor="middle" x="412.041" y="-14.3" font-family="Times,serif" font-size="14.00">dropUntil</text>
</g>
<!-- dropUntil&#45;&gt;dropUntil -->
<g id="edge9" class="edge"><title>dropUntil&#45;&gt;dropUntil</title>
<path fill="none" stroke="black" d="M443.407,-30.985C459.922,-33.0862 474.887,-28.7578 474.887,-18 474.887,-9.51141 465.569,-5.02594 453.525,-4.54359"/>
<polygon fill="black" stroke="black" points="453.233,-1.05329 443.407,-5.01498 453.559,-8.0457 453.233,-1.05329"/>
</g>
<!-- escape -->
<g id="node10" class="node"><title>escape</title>
<ellipse fill="none" stroke="black" cx="691.041" cy="-234" rx="34.394" ry="18"/>
<text text-anchor="middle" x="691.041" y="-230.3" font-family="Times,serif" font-size="14.00">escape</text>
</g>
<!-- isValidChar -->
<g id="node11" class="node"><title>isValidChar</title>
<ellipse fill="none" stroke="black" cx="797.041" cy="-234" rx="53.0913" ry="18"/>
<text text-anchor="middle" x="797.041" y="-230.3" font-family="Times,serif" font-size="14.00">isValidChar</text>
</g>
<!-- keywords -->
<g id="node12" class="node"><title>keywords</title>
<ellipse fill="none" stroke="black" cx="612.041" cy="-306" rx="44.6926" ry="18"/>
<text text-anchor="middle" x="612.041" y="-302.3" font-family="Times,serif" font-size="14.00">keywords</text>
</g>
<!-- someFunc -->
<g id="node13" class="node"><title>someFunc</title>
<ellipse fill="none" stroke="black" cx="539.041" cy="-378" rx="47.3916" ry="18"/>
<text text-anchor="middle" x="539.041" y="-374.3" font-family="Times,serif" font-size="14.00">someFunc</text>
</g>
<!-- someFunc&#45;&gt;defaultParseContext -->
<g id="edge10" class="edge"><title>someFunc&#45;&gt;defaultParseContext</title>
<path fill="none" stroke="black" d="M497.209,-369.303C441.324,-359.014 339.22,-340.193 252.041,-324 245.352,-322.758 238.388,-321.461 231.421,-320.163"/>
<polygon fill="black" stroke="black" points="231.718,-316.658 221.245,-318.265 230.434,-323.539 231.718,-316.658"/>
</g>
<!-- someFunc&#45;&gt;dropComments -->
<g id="edge11" class="edge"><title>someFunc&#45;&gt;dropComments</title>
<path fill="none" stroke="black" d="M504.508,-365.597C469.895,-354.169 416.254,-336.457 377.002,-323.497"/>
<polygon fill="black" stroke="black" points="377.946,-320.123 367.353,-320.311 375.751,-326.77 377.946,-320.123"/>
</g>
<!-- someFunc&#45;&gt;dropSqlTH -->
<g id="edge12" class="edge"><title>someFunc&#45;&gt;dropSqlTH</title>
<path fill="none" stroke="black" d="M521.342,-361.116C511.043,-351.874 497.886,-340.066 486.491,-329.84"/>
<polygon fill="black" stroke="black" points="488.72,-327.138 478.94,-323.064 484.045,-332.348 488.72,-327.138"/>
</g>
<!-- someFunc&#45;&gt;dropStringLiterals -->
<g id="edge13" class="edge"><title>someFunc&#45;&gt;dropStringLiterals</title>
<path fill="none" stroke="black" d="M541.936,-359.871C546.026,-335.67 553.541,-291.211 558.411,-262.393"/>
<polygon fill="black" stroke="black" points="561.92,-262.633 560.136,-252.189 555.018,-261.466 561.92,-262.633"/>
</g>
<!-- someFunc&#45;&gt;keywords -->
<g id="edge14" class="edge"><title>someFunc&#45;&gt;keywords</title>
<path fill="none" stroke="black" d="M555.606,-361.116C565.219,-351.897 577.494,-340.127 588.14,-329.919"/>
<polygon fill="black" stroke="black" points="590.746,-332.269 595.542,-322.821 585.901,-327.216 590.746,-332.269"/>
</g>
<!-- validateWord -->
<g id="node17" class="node"><title>validateWord</title>
<ellipse fill="none" stroke="black" cx="734.041" cy="-306" rx="59.2899" ry="18"/>
<text text-anchor="middle" x="734.041" y="-302.3" font-family="Times,serif" font-size="14.00">validateWord</text>
</g>
<!-- someFunc&#45;&gt;validateWord -->
<g id="edge15" class="edge"><title>someFunc&#45;&gt;validateWord</title>
<path fill="none" stroke="black" d="M572.563,-364.967C604.314,-353.569 652.274,-336.352 687.682,-323.642"/>
<polygon fill="black" stroke="black" points="689.083,-326.858 697.312,-320.185 686.717,-320.269 689.083,-326.858"/>
</g>
<!-- wrapQuotes -->
<g id="node18" class="node"><title>wrapQuotes</title>
<ellipse fill="none" stroke="black" cx="864.041" cy="-306" rx="53.0913" ry="18"/>
<text text-anchor="middle" x="864.041" y="-302.3" font-family="Times,serif" font-size="14.00">wrapQuotes</text>
</g>
<!-- someFunc&#45;&gt;wrapQuotes -->
<g id="edge16" class="edge"><title>someFunc&#45;&gt;wrapQuotes</title>
<path fill="none" stroke="black" d="M581.141,-369.44C633.236,-359.872 724.55,-342.409 802.041,-324 806.195,-323.013 810.491,-321.942 814.795,-320.833"/>
<polygon fill="black" stroke="black" points="816.009,-324.133 824.787,-318.201 814.226,-317.364 816.009,-324.133"/>
</g>
<!-- splitOn&#45;&gt;dropUntil -->
<g id="edge17" class="edge"><title>splitOn&#45;&gt;dropUntil</title>
<path fill="none" stroke="black" d="M459.972,-73.1159C452.079,-64.2038 442.072,-52.9063 433.246,-42.9417"/>
<polygon fill="black" stroke="black" points="435.735,-40.4723 426.484,-35.307 430.495,-45.1135 435.735,-40.4723"/>
</g>
<!-- takeUntil -->
<g id="node15" class="node"><title>takeUntil</title>
<ellipse fill="none" stroke="black" cx="536.041" cy="-18" rx="43.5923" ry="18"/>
<text text-anchor="middle" x="536.041" y="-14.3" font-family="Times,serif" font-size="14.00">takeUntil</text>
</g>
<!-- splitOn&#45;&gt;takeUntil -->
<g id="edge18" class="edge"><title>splitOn&#45;&gt;takeUntil</title>
<path fill="none" stroke="black" d="M488.11,-73.1159C496.003,-64.2038 506.01,-52.9063 514.835,-42.9417"/>
<polygon fill="black" stroke="black" points="517.587,-45.1135 521.598,-35.307 512.347,-40.4723 517.587,-45.1135"/>
</g>
<!-- takeUntil&#45;&gt;takeUntil -->
<g id="edge19" class="edge"><title>takeUntil&#45;&gt;takeUntil</title>
<path fill="none" stroke="black" d="M566.441,-30.943C582.739,-33.1425 597.587,-28.8281 597.587,-18 597.587,-9.45593 588.342,-4.96748 576.435,-4.53465"/>
<polygon fill="black" stroke="black" points="576.245,-1.03974 566.441,-5.05701 576.61,-8.0302 576.245,-1.03974"/>
</g>
<!-- toMaybe -->
<g id="node16" class="node"><title>toMaybe</title>
<ellipse fill="none" stroke="black" cx="911.041" cy="-234" rx="42.4939" ry="18"/>
<text text-anchor="middle" x="911.041" y="-230.3" font-family="Times,serif" font-size="14.00">toMaybe</text>
</g>
<!-- validateWord&#45;&gt;escape -->
<g id="edge20" class="edge"><title>validateWord&#45;&gt;escape</title>
<path fill="none" stroke="black" d="M723.632,-288.055C718.433,-279.592 712.043,-269.19 706.303,-259.845"/>
<polygon fill="black" stroke="black" points="709.275,-257.996 701.058,-251.307 703.31,-261.66 709.275,-257.996"/>
</g>
<!-- validateWord&#45;&gt;isValidChar -->
<g id="edge21" class="edge"><title>validateWord&#45;&gt;isValidChar</title>
<path fill="none" stroke="black" d="M748.971,-288.411C756.895,-279.606 766.776,-268.628 775.514,-258.919"/>
<polygon fill="black" stroke="black" points="778.13,-261.244 782.218,-251.47 772.927,-256.562 778.13,-261.244"/>
</g>
<!-- validateWord&#45;&gt;toMaybe -->
<g id="edge22" class="edge"><title>validateWord&#45;&gt;toMaybe</title>
<path fill="none" stroke="black" d="M768.589,-291.337C798.092,-279.669 840.533,-262.885 871.411,-250.673"/>
<polygon fill="black" stroke="black" points="872.987,-253.813 880.999,-246.881 870.412,-247.304 872.987,-253.813"/>
</g>
<g id="node19" class="node"><title></title>
<ellipse fill="none" stroke="black" cx="539.041" cy="-450" rx="27" ry="18"/>
</g>
<!-- &#45;&gt;someFunc -->
<g id="edge1" class="edge"><title>&#45;&gt;someFunc</title>
<path fill="none" stroke="black" d="M539.041,-431.697C539.041,-423.983 539.041,-414.712 539.041,-406.112"/>
<polygon fill="black" stroke="black" points="542.541,-406.104 539.041,-396.104 535.541,-406.104 542.541,-406.104"/>
</g>
</g>
</svg>
