<?xml version="1.0" encoding="UTF-8" standalone="no"?>
<!DOCTYPE svg PUBLIC "-//W3C//DTD SVG 1.1//EN"
 "http://www.w3.org/Graphics/SVG/1.1/DTD/svg11.dtd">
<!-- Generated by graphviz version 2.38.0 (20140413.2041)
 -->
<!-- Title: deps Pages: 1 -->
<svg width="1311pt" height="476pt"
 viewBox="0.00 0.00 1310.69 476.00" xmlns="http://www.w3.org/2000/svg" xmlns:xlink="http://www.w3.org/1999/xlink">
<g id="graph0" class="graph" transform="scale(1 1) rotate(0) translate(4 472)">
<title>deps</title>
<polygon fill="white" stroke="none" points="-4,4 -4,-472 1306.69,-472 1306.69,4 -4,4"/>
<!-- defaultParseContext -->
<g id="node1" class="node"><title>defaultParseContext</title>
<ellipse fill="none" stroke="black" cx="334.393" cy="-306" rx="81.7856" ry="18"/>
<text text-anchor="middle" x="334.393" y="-302.3" font-family="Times,serif" font-size="14.00">defaultParseContext</text>
</g>
<!-- dropBetween -->
<g id="node2" class="node"><title>dropBetween</title>
<ellipse fill="none" stroke="black" cx="498.393" cy="-162" rx="57.6901" ry="18"/>
<text text-anchor="middle" x="498.393" y="-158.3" font-family="Times,serif" font-size="14.00">dropBetween</text>
</g>
<!-- splitOn -->
<g id="node16" class="node"><title>splitOn</title>
<ellipse fill="none" stroke="black" cx="348.393" cy="-90" rx="36.2938" ry="18"/>
<text text-anchor="middle" x="348.393" y="-86.3" font-family="Times,serif" font-size="14.00">splitOn</text>
</g>
<!-- dropBetween&#45;&gt;splitOn -->
<g id="edge1" class="edge"><title>dropBetween&#45;&gt;splitOn</title>
<path fill="none" stroke="black" d="M467.677,-146.666C443.204,-135.245 408.931,-119.251 383.398,-107.336"/>
<polygon fill="black" stroke="black" points="384.621,-104.044 374.079,-102.987 381.661,-110.387 384.621,-104.044"/>
</g>
<!-- dropBetweenWithEscape -->
<g id="node3" class="node"><title>dropBetweenWithEscape</title>
<ellipse fill="none" stroke="black" cx="198.393" cy="-162" rx="100.983" ry="18"/>
<text text-anchor="middle" x="198.393" y="-158.3" font-family="Times,serif" font-size="14.00">dropBetweenWithEscape</text>
</g>
<!-- dropBetweenWithEscape&#45;&gt;splitOn -->
<g id="edge2" class="edge"><title>dropBetweenWithEscape&#45;&gt;splitOn</title>
<path fill="none" stroke="black" d="M232.806,-144.941C256.936,-133.68 289.085,-118.677 313.352,-107.353"/>
<polygon fill="black" stroke="black" points="314.98,-110.455 322.562,-103.055 312.02,-104.112 314.98,-110.455"/>
</g>
<!-- dropComments -->
<g id="node4" class="node"><title>dropComments</title>
<ellipse fill="none" stroke="black" cx="538.393" cy="-306" rx="65.7887" ry="18"/>
<text text-anchor="middle" x="538.393" y="-302.3" font-family="Times,serif" font-size="14.00">dropComments</text>
</g>
<!-- dropMultiLineComments -->
<g id="node5" class="node"><title>dropMultiLineComments</title>
<ellipse fill="none" stroke="black" cx="498.393" cy="-234" rx="102.082" ry="18"/>
<text text-anchor="middle" x="498.393" y="-230.3" font-family="Times,serif" font-size="14.00">dropMultiLineComments</text>
</g>
<!-- dropComments&#45;&gt;dropMultiLineComments -->
<g id="edge3" class="edge"><title>dropComments&#45;&gt;dropMultiLineComments</title>
<path fill="none" stroke="black" d="M528.71,-288.055C524.111,-280.007 518.51,-270.205 513.38,-261.226"/>
<polygon fill="black" stroke="black" points="516.265,-259.221 508.265,-252.275 510.187,-262.694 516.265,-259.221"/>
</g>
<!-- dropSingleLineComments -->
<g id="node6" class="node"><title>dropSingleLineComments</title>
<ellipse fill="none" stroke="black" cx="273.393" cy="-234" rx="104.782" ry="18"/>
<text text-anchor="middle" x="273.393" y="-230.3" font-family="Times,serif" font-size="14.00">dropSingleLineComments</text>
</g>
<!-- dropComments&#45;&gt;dropSingleLineComments -->
<g id="edge4" class="edge"><title>dropComments&#45;&gt;dropSingleLineComments</title>
<path fill="none" stroke="black" d="M492.838,-292.967C450.059,-281.666 385.63,-264.647 337.637,-251.97"/>
<polygon fill="black" stroke="black" points="338.526,-248.585 327.964,-249.415 336.738,-255.353 338.526,-248.585"/>
</g>
<!-- dropMultiLineComments&#45;&gt;dropBetween -->
<g id="edge5" class="edge"><title>dropMultiLineComments&#45;&gt;dropBetween</title>
<path fill="none" stroke="black" d="M498.393,-215.697C498.393,-207.983 498.393,-198.712 498.393,-190.112"/>
<polygon fill="black" stroke="black" points="501.893,-190.104 498.393,-180.104 494.893,-190.104 501.893,-190.104"/>
</g>
<!-- dropSqlTH -->
<g id="node7" class="node"><title>dropSqlTH</title>
<ellipse fill="none" stroke="black" cx="668.393" cy="-234" rx="50.0912" ry="18"/>
<text text-anchor="middle" x="668.393" y="-230.3" font-family="Times,serif" font-size="14.00">dropSqlTH</text>
</g>
<!-- dropSqlTH&#45;&gt;dropBetween -->
<g id="edge6" class="edge"><title>dropSqlTH&#45;&gt;dropBetween</title>
<path fill="none" stroke="black" d="M636.816,-219.998C609.87,-208.902 570.878,-192.846 541.139,-180.601"/>
<polygon fill="black" stroke="black" points="542.416,-177.342 531.836,-176.771 539.751,-183.815 542.416,-177.342"/>
</g>
<!-- dropStringLiterals -->
<g id="node8" class="node"><title>dropStringLiterals</title>
<ellipse fill="none" stroke="black" cx="75.3933" cy="-234" rx="75.2868" ry="18"/>
<text text-anchor="middle" x="75.3933" y="-230.3" font-family="Times,serif" font-size="14.00">dropStringLiterals</text>
</g>
<!-- dropStringLiterals&#45;&gt;dropBetweenWithEscape -->
<g id="edge7" class="edge"><title>dropStringLiterals&#45;&gt;dropBetweenWithEscape</title>
<path fill="none" stroke="black" d="M103.304,-217.116C120.359,-207.41 142.386,-194.874 160.945,-184.312"/>
<polygon fill="black" stroke="black" points="162.78,-187.295 169.74,-179.307 159.317,-181.211 162.78,-187.295"/>
</g>
<!-- dropUntil -->
<g id="node9" class="node"><title>dropUntil</title>
<ellipse fill="none" stroke="black" cx="286.393" cy="-18" rx="44.6926" ry="18"/>
<text text-anchor="middle" x="286.393" y="-14.3" font-family="Times,serif" font-size="14.00">dropUntil</text>
</g>
<!-- dropUntil&#45;&gt;dropUntil -->
<g id="edge8" class="edge"><title>dropUntil&#45;&gt;dropUntil</title>
<path fill="none" stroke="black" d="M317.759,-30.985C334.274,-33.0862 349.239,-28.7578 349.239,-18 349.239,-9.51141 339.922,-5.02594 327.877,-4.54359"/>
<polygon fill="black" stroke="black" points="327.586,-1.05329 317.759,-5.01498 327.911,-8.0457 327.586,-1.05329"/>
</g>
<!-- escape -->
<g id="node10" class="node"><title>escape</title>
<ellipse fill="none" stroke="black" cx="770.393" cy="-234" rx="34.394" ry="18"/>
<text text-anchor="middle" x="770.393" y="-230.3" font-family="Times,serif" font-size="14.00">escape</text>
</g>
<!-- isValidChar -->
<g id="node11" class="node"><title>isValidChar</title>
<ellipse fill="none" stroke="black" cx="876.393" cy="-234" rx="53.0913" ry="18"/>
<text text-anchor="middle" x="876.393" y="-230.3" font-family="Times,serif" font-size="14.00">isValidChar</text>
</g>
<!-- isValidOpeningChar -->
<g id="node12" class="node"><title>isValidOpeningChar</title>
<ellipse fill="none" stroke="black" cx="968.393" cy="-162" rx="83.3857" ry="18"/>
<text text-anchor="middle" x="968.393" y="-158.3" font-family="Times,serif" font-size="14.00">isValidOpeningChar</text>
</g>
<!-- isValidChar&#45;&gt;isValidOpeningChar -->
<g id="edge9" class="edge"><title>isValidChar&#45;&gt;isValidOpeningChar</title>
<path fill="none" stroke="black" d="M897.27,-217.116C909.475,-207.829 925.084,-195.953 938.568,-185.693"/>
<polygon fill="black" stroke="black" points="940.801,-188.392 946.64,-179.552 936.562,-182.821 940.801,-188.392"/>
</g>
<!-- keywords -->
<g id="node13" class="node"><title>keywords</title>
<ellipse fill="none" stroke="black" cx="1133.39" cy="-306" rx="44.6926" ry="18"/>
<text text-anchor="middle" x="1133.39" y="-302.3" font-family="Times,serif" font-size="14.00">keywords</text>
</g>
<!-- main -->
<g id="node14" class="node"><title>main</title>
<ellipse fill="none" stroke="black" cx="768.393" cy="-450" rx="28.6953" ry="18"/>
<text text-anchor="middle" x="768.393" y="-446.3" font-family="Times,serif" font-size="14.00">main</text>
</g>
<!-- someFunc -->
<g id="node15" class="node"><title>someFunc</title>
<ellipse fill="none" stroke="black" cx="768.393" cy="-378" rx="47.3916" ry="18"/>
<text text-anchor="middle" x="768.393" y="-374.3" font-family="Times,serif" font-size="14.00">someFunc</text>
</g>
<!-- main&#45;&gt;someFunc -->
<g id="edge10" class="edge"><title>main&#45;&gt;someFunc</title>
<path fill="none" stroke="black" d="M768.393,-431.697C768.393,-423.983 768.393,-414.712 768.393,-406.112"/>
<polygon fill="black" stroke="black" points="771.893,-406.104 768.393,-396.104 764.893,-406.104 771.893,-406.104"/>
</g>
<!-- someFunc&#45;&gt;defaultParseContext -->
<g id="edge11" class="edge"><title>someFunc&#45;&gt;defaultParseContext</title>
<path fill="none" stroke="black" d="M725.131,-370.496C660.801,-360.76 536.143,-341.652 430.393,-324 422.382,-322.663 414,-321.229 405.669,-319.783"/>
<polygon fill="black" stroke="black" points="406.014,-316.29 395.561,-318.018 404.81,-323.186 406.014,-316.29"/>
</g>
<!-- someFunc&#45;&gt;dropComments -->
<g id="edge12" class="edge"><title>someFunc&#45;&gt;dropComments</title>
<path fill="none" stroke="black" d="M732.456,-366.062C694.362,-354.469 633.834,-336.047 590.506,-322.86"/>
<polygon fill="black" stroke="black" points="591.299,-319.443 580.713,-319.88 589.26,-326.14 591.299,-319.443"/>
</g>
<!-- someFunc&#45;&gt;dropSqlTH -->
<g id="edge13" class="edge"><title>someFunc&#45;&gt;dropSqlTH</title>
<path fill="none" stroke="black" d="M740.46,-363.427C724.501,-354.335 705.347,-340.933 693.393,-324 680.489,-305.721 674.225,-280.956 671.197,-262.19"/>
<polygon fill="black" stroke="black" points="674.65,-261.612 669.793,-252.196 667.718,-262.585 674.65,-261.612"/>
</g>
<!-- someFunc&#45;&gt;dropStringLiterals -->
<g id="edge14" class="edge"><title>someFunc&#45;&gt;dropStringLiterals</title>
<path fill="none" stroke="black" d="M720.824,-377.098C658.475,-375.414 547.211,-366.073 463.393,-324 442.601,-313.563 446.378,-298.045 425.393,-288 317.786,-236.49 277.032,-271.843 159.393,-252 153.135,-250.944 146.63,-249.769 140.134,-248.542"/>
<polygon fill="black" stroke="black" points="140.453,-245.039 129.971,-246.582 139.128,-251.912 140.453,-245.039"/>
</g>
<!-- someFunc&#45;&gt;isValidOpeningChar -->
<g id="edge15" class="edge"><title>someFunc&#45;&gt;isValidOpeningChar</title>
<path fill="none" stroke="black" d="M815.194,-374.793C862.189,-370.597 934.958,-358.532 987.393,-324 1032.21,-294.484 1065.77,-263.812 1041.39,-216 1034.7,-202.863 1023.05,-192.22 1011.01,-184.014"/>
<polygon fill="black" stroke="black" points="1012.55,-180.85 1002.23,-178.469 1008.81,-186.769 1012.55,-180.85"/>
</g>
<!-- someFunc&#45;&gt;keywords -->
<g id="edge16" class="edge"><title>someFunc&#45;&gt;keywords</title>
<path fill="none" stroke="black" d="M812.272,-370.938C871.961,-362.342 981.915,-345.265 1074.39,-324 1079.14,-322.908 1084.08,-321.664 1088.98,-320.356"/>
<polygon fill="black" stroke="black" points="1090.22,-323.646 1098.93,-317.613 1088.36,-316.898 1090.22,-323.646"/>
</g>
<!-- validateFunAp -->
<g id="node19" class="node"><title>validateFunAp</title>
<ellipse fill="none" stroke="black" cx="915.393" cy="-306" rx="63.0888" ry="18"/>
<text text-anchor="middle" x="915.393" y="-302.3" font-family="Times,serif" font-size="14.00">validateFunAp</text>
</g>
<!-- someFunc&#45;&gt;validateFunAp -->
<g id="edge17" class="edge"><title>someFunc&#45;&gt;validateFunAp</title>
<path fill="none" stroke="black" d="M796.736,-363.503C819.004,-352.9 850.301,-337.997 875.161,-326.158"/>
<polygon fill="black" stroke="black" points="876.818,-329.246 884.342,-321.786 873.809,-322.926 876.818,-329.246"/>
</g>
<!-- validateFunDef -->
<g id="node20" class="node"><title>validateFunDef</title>
<ellipse fill="none" stroke="black" cx="768.393" cy="-306" rx="65.7887" ry="18"/>
<text text-anchor="middle" x="768.393" y="-302.3" font-family="Times,serif" font-size="14.00">validateFunDef</text>
</g>
<!-- someFunc&#45;&gt;validateFunDef -->
<g id="edge18" class="edge"><title>someFunc&#45;&gt;validateFunDef</title>
<path fill="none" stroke="black" d="M768.393,-359.697C768.393,-351.983 768.393,-342.712 768.393,-334.112"/>
<polygon fill="black" stroke="black" points="771.893,-334.104 768.393,-324.104 764.893,-334.104 771.893,-334.104"/>
</g>
<!-- wrapQuotes -->
<g id="node21" class="node"><title>wrapQuotes</title>
<ellipse fill="none" stroke="black" cx="1249.39" cy="-306" rx="53.0913" ry="18"/>
<text text-anchor="middle" x="1249.39" y="-302.3" font-family="Times,serif" font-size="14.00">wrapQuotes</text>
</g>
<!-- someFunc&#45;&gt;wrapQuotes -->
<g id="edge19" class="edge"><title>someFunc&#45;&gt;wrapQuotes</title>
<path fill="none" stroke="black" d="M814.306,-373.339C891.766,-366.684 1053.1,-350.763 1187.39,-324 1191.82,-323.117 1196.4,-322.089 1200.97,-320.983"/>
<polygon fill="black" stroke="black" points="1202.07,-324.315 1210.9,-318.464 1200.35,-317.53 1202.07,-324.315"/>
</g>
<!-- splitOn&#45;&gt;dropUntil -->
<g id="edge20" class="edge"><title>splitOn&#45;&gt;dropUntil</title>
<path fill="none" stroke="black" d="M334.325,-73.1159C326.431,-64.2038 316.425,-52.9063 307.599,-42.9417"/>
<polygon fill="black" stroke="black" points="310.087,-40.4723 300.837,-35.307 304.847,-45.1135 310.087,-40.4723"/>
</g>
<!-- takeUntil -->
<g id="node17" class="node"><title>takeUntil</title>
<ellipse fill="none" stroke="black" cx="410.393" cy="-18" rx="43.5923" ry="18"/>
<text text-anchor="middle" x="410.393" y="-14.3" font-family="Times,serif" font-size="14.00">takeUntil</text>
</g>
<!-- splitOn&#45;&gt;takeUntil -->
<g id="edge21" class="edge"><title>splitOn&#45;&gt;takeUntil</title>
<path fill="none" stroke="black" d="M362.462,-73.1159C370.356,-64.2038 380.362,-52.9063 389.188,-42.9417"/>
<polygon fill="black" stroke="black" points="391.94,-45.1135 395.95,-35.307 386.7,-40.4723 391.94,-45.1135"/>
</g>
<!-- takeUntil&#45;&gt;takeUntil -->
<g id="edge22" class="edge"><title>takeUntil&#45;&gt;takeUntil</title>
<path fill="none" stroke="black" d="M440.793,-30.943C457.091,-33.1425 471.939,-28.8281 471.939,-18 471.939,-9.45593 462.695,-4.96748 450.788,-4.53465"/>
<polygon fill="black" stroke="black" points="450.597,-1.03974 440.793,-5.05701 450.962,-8.0302 450.597,-1.03974"/>
</g>
<!-- toMaybe -->
<g id="node18" class="node"><title>toMaybe</title>
<ellipse fill="none" stroke="black" cx="990.393" cy="-234" rx="42.4939" ry="18"/>
<text text-anchor="middle" x="990.393" y="-230.3" font-family="Times,serif" font-size="14.00">toMaybe</text>
</g>
<!-- validateFunAp&#45;&gt;escape -->
<g id="edge23" class="edge"><title>validateFunAp&#45;&gt;escape</title>
<path fill="none" stroke="black" d="M884.643,-290.155C861.011,-278.746 828.402,-263.004 804.07,-251.258"/>
<polygon fill="black" stroke="black" points="805.384,-248.006 794.857,-246.81 802.341,-254.31 805.384,-248.006"/>
</g>
<!-- validateFunAp&#45;&gt;isValidChar -->
<g id="edge24" class="edge"><title>validateFunAp&#45;&gt;isValidChar</title>
<path fill="none" stroke="black" d="M905.952,-288.055C901.354,-279.801 895.727,-269.701 890.621,-260.538"/>
<polygon fill="black" stroke="black" points="893.672,-258.821 885.747,-251.789 887.557,-262.228 893.672,-258.821"/>
</g>
<!-- validateFunAp&#45;&gt;toMaybe -->
<g id="edge25" class="edge"><title>validateFunAp&#45;&gt;toMaybe</title>
<path fill="none" stroke="black" d="M933.167,-288.411C942.997,-279.237 955.354,-267.703 966.068,-257.703"/>
<polygon fill="black" stroke="black" points="968.597,-260.131 973.519,-250.749 963.821,-255.013 968.597,-260.131"/>
</g>
<!-- validateFunDef&#45;&gt;escape -->
<g id="edge26" class="edge"><title>validateFunDef&#45;&gt;escape</title>
<path fill="none" stroke="black" d="M768.888,-287.697C769.108,-279.983 769.373,-270.712 769.619,-262.112"/>
<polygon fill="black" stroke="black" points="773.117,-262.2 769.905,-252.104 766.12,-262 773.117,-262.2"/>
</g>
<!-- validateFunDef&#45;&gt;isValidChar -->
<g id="edge27" class="edge"><title>validateFunDef&#45;&gt;isValidChar</title>
<path fill="none" stroke="black" d="M792.9,-289.116C808.023,-279.314 827.599,-266.626 843.993,-256"/>
<polygon fill="black" stroke="black" points="846.238,-258.716 852.726,-250.34 842.43,-252.842 846.238,-258.716"/>
</g>
</g>
</svg>
